#!OML:ASF F:\VICON\USERDATA\INSTALL\rory3\rory3.ASF
:FULLY-SPECIFIED
:DEGREES
511
root -0.0452995 17.9329 37.1565 -8.47327 1.72437 3.57769
lowerback 17.9052 0.0334593 -2.61334
upperback 2.05976 -0.236971 2.69237
thorax -7.79832 0.0110055 4.45751
lowerneck -6.89581 -4.75599 -4.31265
upperneck 36.7587 -4.09567 -6.01315
head 13.5608 -3.1276 -2.1743
rclavicle 2.15681e-014 1.74931e-014
rhumerus -46.4822 -43.4203 -46.7265
rradius 30.6791
rwrist -17.595
rhand -11.7654 -0.763856
rfingers 7.12502
rthumb 14.2831 -30.2526
lclavicle 2.15681e-014 1.74931e-014
lhumerus -48.0136 8.5544 79.9074
lradius 45.1269
lwrist 4.69845
lhand -10.0332 50.7019
lfingers 7.12502
lthumb 15.9517 80.065
rfemur -13.844 -3.62318 16.0233
rtibia 75.1004
rfoot -2.45174 -15.313
rtoes 17.8682
lfemur -7.29298 -5.2076 -29.2968
ltibia 33.0131
lfoot -11.4018 -1.73224
ltoes -8.98739
512
root -0.051805 17.9452 37.34 -8.54822 1.7653 3.71179
lowerback 18.1082 -0.0477889 -2.94995
upperback 1.91895 -0.410163 2.72928
thorax -8.04363 -0.0527534 4.74177
lowerneck -6.25551 -4.65946 -4.30686
upperneck 36.4766 -4.0077 -6.02741
head 13.295 -3.08502 -2.13236
rclavicle 1.78906e-015 0
rhumerus -47.6005 -42.949 -46.1556
rradius 31.8741
rwrist -20.4732
rhand -12.2183 -0.830205
rfingers 7.12502
rthumb 13.8466 -30.3493
lclavicle 1.78906e-015 0
lhumerus -48.4069 8.5483 79.646
lradius 44.8345
lwrist 5.23441
lhand -10.3681 50.4555
lfingers 7.12502
lthumb 15.6291 79.8441
rfemur -15.035 -3.45337 15.9991
rtibia 74.7975
rfoot -3.45967 -15.037
rtoes 16.0675
lfemur -6.57778 -5.05392 -29.4833
ltibia 32.9535
lfoot -11.2087 -1.77942
ltoes -7.15563
513
root -0.046113 17.9737 37.5303 -8.45727 1.96696 4.04416
lowerback 18.0146 -0.210947 -3.33199
upperback 1.90056 -0.703607 2.68329
thorax -7.97742 -0.18417 4.98107
lowerneck -6.219 -4.63867 -4.44267
upperneck 36.4424 -3.98583 -5.9558
head 13.2804 -3.08641 -2.07584
rclavicle -1.53064e-014 2.70347e-014
rhumerus -48.3654 -42.6035 -45.9171
rradius 33.4345
rwrist -22.9186
rhand -12.7933 -1.25243
rfingers 7.12502
rthumb 13.2925 -30.8085
lclavicle -1.53064e-014 2.70347e-014
lhumerus -48.5685 8.70341 79.4116
lradius 44.7106
lwrist 5.62466
lhand -10.4553 50.8546
lfingers 7.12502
lthumb 15.5451 80.2498
rfemur -16.1319 -3.46589 15.6077
rtibia 74.2221
rfoot -4.58231 -14.6231
rtoes 15.5764
lfemur -6.27981 -5.07279 -29.945
ltibia 32.9573
lfoot -11.6828 -1.95816
ltoes -7.60445
514
root -0.0442537 17.9441 37.7005 -8.17648 2.22086 4.50376
lowerback 17.728 -0.356326 -3.77143
upperback 1.98238 -0.983569 2.57742
thorax -7.69406 -0.317474 5.17444
lowerneck -6.79095 -4.63463 -4.33403
upperneck 36.5825 -3.92992 -6.05748
head 13.4611 -3.06705 -2.1556
rclavicle -2.0276e-014 2.70347e-014
rhumerus -49.0114 -43.3925 -45.1856
rradius 34.6165
rwrist -24.348
rhand -12.8287 -1.327
rfingers 7.12502
rthumb 13.2583 -30.8853
lclavicle -2.0276e-014 2.70347e-014
lhumerus -48.363 8.87883 79.2221
lradius 44.538
lwrist 5.8049
lhand -10.355 51.2594
lfingers 7.12502
lthumb 15.6417 80.6471
rfemur -17.7257 -3.44039 15.1077
rtibia 73.8147
rfoot -5.82271 -14.3346
rtoes 14.7655
lfemur -5.55723 -5.0342 -30.5648
ltibia 32.8955
lfoot -12.1173 -1.58179
ltoes -8.83334
515
root -0.0377041 17.9434 37.852 -7.94117 2.45543 4.42998
lowerback 17.853 -0.609042 -3.64124
upperback 1.91269 -1.2933 2.60011
thorax -7.80486 -0.466075 5.20389
lowerneck -6.99201 -4.55263 -4.21105
upperneck 36.6025 -3.7799 -6.19463
head 13.5082 -3.00595 -2.22067
rclavicle -4.47266e-015 -2.06736e-014
rhumerus -49.5506 -43.552 -44.8468
rradius 36.1193
rwrist -26.2643
rhand -12.4591 -1.31584
rfingers 7.12502
rthumb 13.6146 -30.8506
lclavicle -4.47266e-015 -2.06736e-014
lhumerus -48.4554 8.98177 78.9953
lradius 44.4966
lwrist 6.09025
lhand -10.4685 51.4056
lfingers 7.12502
lthumb 15.5324 80.8018
rfemur -19.184 -3.42513 15.2527
rtibia 73.0715
rfoot -6.75995 -14.2729
rtoes 13.429
lfemur -5.25316 -5.15252 -30.5701
ltibia 32.7986
lfoot -12.7151 -1.43314
ltoes -10.3292
516
root -0.0474806 17.9456 38.0476 -8.02673 2.44743 4.65419
lowerback 17.8539 -0.740162 -4.1185
upperback 2.02774 -1.56063 2.59385
thorax -7.63613 -0.588835 5.53157
lowerneck -7.24986 -4.46119 -4.11722
upperneck 36.5929 -3.60247 -6.3529
head 13.5567 -2.94086 -2.28649
rclavicle 1.63997e-014 3.18055e-014
rhumerus -49.7066 -42.5671 -45.5385
rradius 38.3655
rwrist -29.2665
rhand -12.7764 -1.74738
rfingers 7.12502
rthumb 13.3087 -31.3024
lclavicle 1.63997e-014 3.18055e-014
lhumerus -48.6259 9.21883 78.6757
lradius 44.5398
lwrist 6.4599
lhand -10.4669 51.6297
lfingers 7.12502
lthumb 15.534 81.0257
rfemur -19.9973 -3.04467 15.1479
rtibia 72.1673
rfoot -7.90818 -14.2633
rtoes 13.3654
lfemur -4.28255 -5.10639 -30.8636
ltibia 32.5576
lfoot -12.7908 -1.27743
ltoes -8.6733
517
root -0.0497892 17.9314 38.2324 -7.95407 2.58545 5.22399
lowerback 17.8829 -0.854536 -4.76352
upperback 2.16744 -1.84879 2.4615
thorax -7.44742 -0.721307 5.82218
lowerneck -7.86304 -4.43232 -4.03421
upperneck 36.4731 -3.52255 -6.42709
head 13.634 -2.90967 -2.33634
rclavicle -1.88845e-015 -2.38542e-014
rhumerus -49.7651 -41.8651 -46.252
rradius 40.6838
rwrist -32.1511
rhand -13.7657 -2.13816
rfingers 7.12502
rthumb 12.355 -31.7531
lclavicle -1.88845e-015 -2.38542e-014
lhumerus -48.2979 9.3509 78.4882
lradius 44.2215
lwrist 6.91163
lhand -10.5892 51.5112
lfingers 7.12502
lthumb 15.4162 80.9163
rfemur -20.9684 -2.88545 14.5221
rtibia 71.0891
rfoot -8.99583 -14.1167
rtoes 12.6941
lfemur -3.28199 -5.12784 -31.6256
ltibia 32.4213
lfoot -12.6015 -0.905058
ltoes -9.06903
518
root -0.0479023 17.9212 38.4092 -7.97621 2.95303 5.8934
lowerback 18.3643 -0.885415 -5.17958
upperback 1.28613 -2.02455 2.24136
thorax -8.64774 -0.726056 5.91564
lowerneck -5.00071 -4.47778 -4.49357
upperneck 35.9763 -3.77288 -6.26046
head 12.8134 -3.03324 -2.09766
rclavicle 3.47873e-015 -2.06736e-014
rhumerus -52.6101 -40.2189 -44.6389
rradius 43.1553
rwrist -34.8745
rhand -14.4262 -2.37627
rfingers 7.12502
rthumb 11.7182 -32.0285
lclavicle 3.47873e-015 -2.06736e-014
lhumerus -49.8808 8.30781 78.4908
lradius 43.8128
lwrist 7.40574
lhand -10.9688 51.0982
lfingers 7.12502
lthumb 15.0505 80.5311
rfemur -21.7459 -2.93793 13.717
rtibia 69.8884
rfoot -9.98379 -14.1107
rtoes 11.3496
lfemur -2.34395 -5.33616 -32.5214
ltibia 32.1312
lfoot -12.7622 -0.818801
ltoes -5.51361
519
root -0.0647708 17.9533 38.5895 -8.13179 2.53144 5.2476
lowerback 18.7424 -0.930744 -4.86553
upperback 1.31528 -2.01353 2.47533
thorax -8.82825 -0.720972 6.00789
lowerneck -5.39031 -4.38507 -4.1852
upperneck 36.1257 -3.5943 -6.48992
head 12.9462 -2.95017 -2.2401
rclavicle 2.99171e-014 -1.43125e-014
rhumerus -53.1303 -39.8504 -44.644
rradius 45.1685
rwrist -36.9052
rhand -15.2046 -2.27888
rfingers 7.12502
rthumb 10.9674 -31.9724
lclavicle 2.99171e-014 -1.43125e-014
lhumerus -49.7653 8.25565 78.2904
lradius 43.3358
lwrist 7.60747
lhand -10.9414 50.7501
lfingers 7.12502
lthumb 15.077 80.1811
rfemur -22.3387 -2.02979 14.7621
rtibia 68.1876
rfoot -10.8526 -14.8665
rtoes 11.4356
lfemur -1.75802 -5.28021 -31.792
ltibia 31.9028
lfoot -13.4163 -0.539555
ltoes -6.51746
520
root -0.0524888 17.948 38.757 -7.73129 3.01186 6.449
lowerback 18.9458 -1.13329 -5.86976
upperback 1.01829 -2.54653 2.09233
thorax -9.17131 -0.92088 6.319
lowerneck -5.54495 -4.25922 -3.90555
upperneck 36.2112 -3.38892 -6.70077
head 13.005 -2.85486 -2.35655
rclavicle 2.37548e-014 -6.36111e-015
rhumerus -53.424 -33.3135 -49.2107
rradius 51.5766
rwrist -45.5473
rhand -19.1146 -2.68044
rfingers 7.12502
rthumb 7.19452 -32.5381
lclavicle 2.37548e-014 -6.36111e-015
lhumerus -49.9687 8.31196 77.9706
lradius 43.0054
lwrist 7.72626
lhand -10.8921 50.6165
lfingers 7.12502
lthumb 15.1245 80.0439
rfemur -23.4924 -2.34816 13.2143
rtibia 66.7111
rfoot -11.4936 -14.9626
rtoes 11.2815
lfemur -1.41263 -5.47176 -33.2612
ltibia 31.456
lfoot -13.2773 -0.63
ltoes -6.09173
521
root -0.067452 17.961 38.9472 -7.89962 2.63685 6.16671
lowerback 18.7214 -1.14916 -5.92841
upperback 1.32713 -2.5431 2.28403
thorax -8.69371 -0.944314 6.53908
lowerneck -5.66699 -4.1906 -4.01549
upperneck 35.9466 -3.33407 -6.52126
head 12.9239 -2.82158 -2.25196
rclavicle -2.22639e-014 0
rhumerus -54.3989 -40.6167 -43.381
rradius 48.9545
rwrist -39.2442
rhand -15.4191 -2.30126
rfingers 7.12502
rthumb 10.7606 -32.0057
lclavicle -2.22639e-014 0
lhumerus -49.6904 8.55064 77.8441
lradius 42.8005
lwrist 7.6349
lhand -10.8161 50.4587
lfingers 7.12502
lthumb 15.1976 79.8806
rfemur -23.9464 -1.53504 13.7477
rtibia 64.7748
rfoot -12.0134 -15.9682
rtoes 10.8859
lfemur -0.368886 -5.14983 -32.9474
ltibia 31.1389
lfoot -13.4048 -0.449699
ltoes -10.0138
522
root -0.0475406 17.9473 39.109 -7.42778 2.90995 7.56807
lowerback 18.0841 -1.26959 -7.07239
upperback 1.63104 -2.92676 1.87462
thorax -7.91393 -1.14423 6.78609
lowerneck -6.26403 -4.11288 -3.76369
upperneck 35.7112 -3.18885 -6.67867
head 12.9383 -2.7459 -2.34751
rclavicle -1.78906e-014 -9.54166e-015
rhumerus -54.1901 -41.349 -43.3448
rradius 50.7746
rwrist -40.1061
rhand -15.9357 -2.80106
rfingers 7.12502
rthumb 10.2622 -32.5307
lclavicle -1.78906e-014 -9.54166e-015
lhumerus -49.0905 8.76803 77.7471
lradius 42.9347
lwrist 7.29471
lhand -10.3724 50.8135
lfingers 7.12502
lthumb 15.6251 80.2025
rfemur -25.1078 -1.87745 11.9206
rtibia 63.0538
rfoot -12.4361 -16.0168
rtoes 10.7815
lfemur 0.286128 -5.08683 -34.6336
ltibia 30.5251
lfoot -13.4609 -0.252956
ltoes -13.9854
523
root -0.0580822 17.9555 39.2799 -7.3429 2.4713 7.23662
lowerback 17.8632 -1.3095 -6.99228
upperback 2.12607 -2.92016 2.03596
thorax -7.24624 -1.19151 6.88216
lowerneck -7.59674 -4.03516 -3.49171
upperneck 35.5885 -3.02062 -6.77825
head 13.1632 -2.65965 -2.45101
rclavicle -1.80894e-014 2.8625e-014
rhumerus -53.7363 -41.535 -44.0288
rradius 53.2565
rwrist -41.4819
rhand -17.1969 -3.25602
rfingers 7.12502
rthumb 9.04533 -33.0421
lclavicle -1.80894e-014 2.8625e-014
lhumerus -48.2095 8.99062 77.7183
lradius 43.0516
lwrist 7.12522
lhand -10.2966 51.2927
lfingers 7.12502
lthumb 15.698 80.6759
rfemur -25.7184 -0.996929 12.4608
rtibia 60.7254
rfoot -13.0568 -16.7853
rtoes 11.9602
lfemur 1.06869 -4.83469 -34.2121
ltibia 30.0779
lfoot -13.6753 -0.0746942
ltoes -14.6609
524
root -0.0524799 17.9645 39.4495 -7.25862 2.41158 7.31809
lowerback 18.2995 -1.37074 -6.88979
upperback 1.54046 -3.03231 1.9764
thorax -8.11838 -1.18614 6.83487
lowerneck -6.11091 -4.05401 -3.94097
upperneck 35.3592 -3.21291 -6.3464
head 12.7645 -2.73599 -2.16918
rclavicle 1.39149e-014 1.11319e-014
rhumerus -55.6639 -39.8881 -43.3593
rradius 56.4819
rwrist -43.4627
rhand -17.7316 -3.67279
rfingers 7.12502
rthumb 8.52937 -33.4805
lclavicle 1.39149e-014 1.11319e-014
lhumerus -49.3411 8.33783 77.6489
lradius 43.2817
lwrist 7.30968
lhand -10.3681 51.301
lfingers 7.12502
lthumb 15.6292 80.6896
rfemur -26.2016 -0.724911 12.32
rtibia 58.3941
rfoot -13.4616 -17.2746
rtoes 13.7347
lfemur 1.7295 -4.78512 -34.3418
ltibia 29.2304
lfoot -13.242 -0.176952
ltoes -15.5207
525
root -0.0846575 18.0099 39.6555 -7.62386 1.64209 5.79314
lowerback 18.5175 -1.28627 -5.7773
upperback 1.33359 -2.66618 2.46404
thorax -8.55302 -1.01339 6.66925
lowerneck -4.84802 -4.06593 -4.10498
upperneck 35.1621 -3.3402 -6.2144
head 12.4203 -2.78568 -2.05598
rclavicle 2.3059e-014 1.11319e-014
rhumerus -57.1996 -40.4401 -41.2941
rradius 57.7596
rwrist -43.2429
rhand -16.0392 -3.13452
rfingers 7.12502
rthumb 10.1623 -32.8691
lclavicle 2.3059e-014 1.11319e-014
lhumerus -50.1547 7.64433 77.6453
lradius 43.3969
lwrist 7.29098
lhand -10.148 51.3584
lfingers 7.12502
lthumb 15.8411 80.7303
rfemur -25.9697 0.839525 14.3477
rtibia 55.6289
rfoot -13.781 -18.4764
rtoes 15.3806
lfemur 3.32027 -4.65783 -32.5498
ltibia 28.3274
lfoot -13.4012 -0.284709
ltoes -15.4608
